# xmcd CD database file generated by OrangeCD 5.2
#
# Track frame offsets:
#	150
#	12823
#	24595
#	37240
#	48730
#	61575
#	73505
#	85763
#	97978
#	111120
#	123290
#	134373
#	147208
#	160468
#	174148
#	185280
#	196783
#	206978
#
# Disc length: 2902 seconds
#
# Revision: 3
# Processed by: cddbd v1.5.1PL0 Copyright (c) Steve Scherf et al.
# Submitted via: OrangeCD 5.2
#
DISCID=f30b5412
DTITLE=Wynonie Harris - Bloodshot Eyes - The Best Of Wynonie Harris
DYEAR=1994
DGENRE=Blues
TTITLE0=Good Rockin' Tonight
TTITLE1=Grandma Plays The Numbers
TTITLE2=I Feel That Old Age Coming On
TTITLE3=All She Wants To Do Is Rock
TTITLE4=Wynonie Harris (with Joe Turner) - Battle Of The Blues (Part 2)
TTITLE5=Sittin' On It All The Time
TTITLE6=I Like My Baby's Pudding
TTITLE7=Good Morning Judge
TTITLE8=Oh Babe!
TTITLE9=Bloodshot Eyes
TTITLE10=Lovin' Machine
TTITLE11=Luscious Woman
TTITLE12=Keep On Churnin'
TTITLE13=Bad News Baby (There'll Be No Lovin' Tonight)
TTITLE14=Quiet Whiskey
TTITLE15=Down Boy Down
TTITLE16=Don't Take My Whiskey Away From Me
TTITLE17=Git To Gittin' Baby
EXTD=
EXTT0=
EXTT1=
EXTT2=
EXTT3=
EXTT4=
EXTT5=
EXTT6=
EXTT7=
EXTT8=
EXTT9=
EXTT10=
EXTT11=
EXTT12=
EXTT13=
EXTT14=
EXTT15=
EXTT16=
EXTT17=
PLAYORDER=
